<?xml version="1.0" standalone="no"?>
<!DOCTYPE svg PUBLIC "-//W3C//DTD SVG 20010904//EN"
 "http://www.w3.org/TR/2001/REC-SVG-20010904/DTD/svg10.dtd">
<svg version="1.0" xmlns="http://www.w3.org/2000/svg"
 width="512.000000pt" height="512.000000pt" viewBox="0 0 512.000000 512.000000"
 preserveAspectRatio="xMidYMid meet">

<g transform="translate(0.000000,512.000000) scale(0.100000,-0.100000)"
fill="#000000" stroke="none">
<path d="M1780 4223 c-184 -31 -370 -130 -497 -266 -120 -129 -108 -97 -538
-1387 -284 -855 -396 -1203 -401 -1250 -17 -169 72 -312 237 -382 l54 -23
1315 -3 c723 -2 1343 0 1378 3 35 4 62 11 60 16 -2 5 -113 141 -248 304 l-245
295 -507 0 c-336 0 -525 4 -560 11 -107 23 -183 79 -230 169 -19 37 -23 60
-23 130 0 84 3 94 188 649 104 310 202 592 219 625 41 81 170 210 261 261 38
21 103 49 145 64 l77 26 665 0 c619 0 669 -1 721 -18 79 -26 148 -82 184 -147
27 -50 30 -64 30 -145 l0 -90 -193 -577 c-209 -623 -217 -643 -322 -747 -29
-29 -76 -68 -106 -88 l-53 -35 181 -217 c243 -290 211 -262 254 -221 20 19 58
68 85 109 45 70 74 149 450 1279 373 1121 401 1209 402 1276 2 187 -101 318
-287 366 -78 20 -105 20 -1375 19 -713 -1 -1307 -4 -1321 -6z m70 -766 c16 -8
26 -23 28 -40 4 -29 -579 -1794 -605 -1834 -27 -41 -72 -53 -205 -53 -139 0
-168 10 -168 58 0 45 590 1804 614 1831 11 13 35 30 51 37 40 18 250 19 285 1z"/>
<path d="M2405 3096 c-16 -7 -38 -22 -48 -33 -19 -22 -377 -1084 -377 -1120 0
-52 9 -53 321 -53 l290 0 -15 22 c-18 26 -21 70 -6 98 5 10 66 50 134 89 131
76 170 85 225 57 15 -8 74 -71 131 -140 80 -97 110 -126 128 -126 34 0 91 29
104 54 20 36 368 1090 368 1113 0 12 -10 29 -22 37 -20 14 -94 16 -613 16
-467 -1 -596 -4 -620 -14z"/>
</g>
</svg>
